	<svg
		viewBox="131.089 95.945 61.491 92.417"
		width="61.491"
		height="92.417"
		xmlns="http://www.w3.org/2000/svg"
		fill="#2f82a1"
	>
		<polygon
			points="180.828 106.42 181.06 102.511 177.678 100.088 175.008 102.539"
		/>
		<polygon
			points="138.996 166.944 135.435 164.893 137.484 174.511 142.415 173.943"
		/>
		<polygon
			points="170.935 181.826 159.373 164.043 150.024 161.186 139.983 166.8 143.482 173.964 168.732 184.03"
		/>
		<polygon
			points="192.58 153.625 186.271 133.929 160.27 163.682 171.764 181.358 183.996 178.774 192.58 162.738"
		/>
		<polygon
			points="184.303 182.029 183.924 179.757 171.78 182.324 169.471 184.634 171.872 187.909"
		/>
		<polygon
			points="168.544 184.977 143.071 174.822 138.015 175.405 140.798 178.653 163.273 188.362 170.914 188.362 170.998 188.322"
		/>
		<polygon
			points="184.805 179.274 185.193 181.609 192.58 178.113 192.58 164.748"
		/>
		<polygon
			points="139.363 166.061 149.478 160.403 146.619 108.049 131.089 144.491 135.169 163.647"
		/>
		<polygon
			points="174.036 102.142 176.74 99.661 164.172 95.945 149.248 101.879 148.034 104.73"
		/>
		<polygon
			points="181.73 107.241 186.926 132.859 192.58 150.513 192.58 126.691 184.849 105.223 181.973 103.164"
		/>
		<path
			d="M 180.828 107.56 L 174.12 103.086 L 147.61 105.725 L 147.461 106.073 L 150.425 160.316 L 159.522 163.097 L 185.957 132.847 L 180.828 107.56 Z M 163.705 112.541 C 162.582 112.541 161.673 111.631 161.673 110.509 C 161.673 109.387 162.582 108.476 163.705 108.476 C 164.827 108.476 165.737 109.388 165.737 110.509 C 165.737 111.63 164.827 112.541 163.705 112.541 Z"
		/>
	</svg>