<?xml version="1.0" standalone="no"?>
<!DOCTYPE svg PUBLIC "-//W3C//DTD SVG 20010904//EN"
 "http://www.w3.org/TR/2001/REC-SVG-20010904/DTD/svg10.dtd">
<svg version="1.0" xmlns="http://www.w3.org/2000/svg"
 width="1024.000000pt" height="1024.000000pt" viewBox="0 0 1024.000000 1024.000000"
 preserveAspectRatio="xMidYMid meet">
<metadata>
Created by potrace 1.14, written by Peter Selinger 2001-2017
</metadata>
<g transform="translate(0.000000,1024.000000) scale(0.100000,-0.100000)"
fill="#000000" stroke="none">
<path d="M4910 9139 c-380 -36 -802 -176 -1110 -369 -272 -170 -540 -418 -733
-679 -267 -360 -463 -876 -508 -1336 -15 -153 -6 -510 16 -665 20 -136 81
-413 125 -566 163 -559 574 -1361 1095 -2133 320 -474 1151 -1524 1248 -1576
52 -28 146 -18 194 21 144 116 823 972 1170 1475 526 762 927 1513 1109 2079
130 402 190 712 201 1040 8 255 -14 463 -73 695 -129 503 -360 919 -707 1268
-313 316 -742 566 -1151 672 -281 72 -605 100 -876 74z m238 -226 c-15 -2 -42
-2 -60 0 -18 2 -6 4 27 4 33 0 48 -2 33 -4z m-111 -9 c-3 -3 -12 -4 -19 -1 -8
3 -5 6 6 6 11 1 17 -2 13 -5z m316 -1 c-13 -2 -35 -2 -50 0 -16 2 -5 4 22 4
28 0 40 -2 28 -4z m-488 -13 c-11 -5 -29 -8 -40 -8 -16 0 -15 2 5 8 34 11 60
11 35 0z m-105 -19 c-25 -10 -76 -21 -115 -23 -41 -4 -60 -3 -45 2 14 4 47 8
73 9 27 1 46 5 42 10 -5 8 22 15 75 19 8 0 -5 -7 -30 -17z m113 -8 c-7 -2 -19
-2 -25 0 -7 3 -2 5 12 5 14 0 19 -2 13 -5z m-317 -30 c-15 -4 -16 -7 -5 -15
10 -7 8 -8 -8 -3 -26 7 -66 -3 -58 -14 2 -5 -8 -6 -23 -3 -24 5 -21 8 28 23
30 10 62 18 70 17 9 0 7 -2 -4 -5z m107 0 c-7 -2 -19 -2 -25 0 -7 3 -2 5 12 5
14 0 19 -2 13 -5z m-23 -13 c20 -6 21 -8 5 -8 -11 0 -31 4 -45 8 -20 6 -21 8
-5 8 11 0 31 -4 45 -8z m297 4 c-3 -3 -12 -4 -19 -1 -8 3 -5 6 6 6 11 1 17 -2
13 -5z m50 0 c-3 -3 -12 -4 -19 -1 -8 3 -5 6 6 6 11 1 17 -2 13 -5z m366 -1
c-7 -2 -19 -2 -25 0 -7 3 -2 5 12 5 14 0 19 -2 13 -5z m-518 -13 c-57 -15
-248 -50 -252 -46 -4 4 119 33 196 46 60 10 94 10 56 0z m-410 -20 c3 -6 -1
-7 -9 -4 -18 7 -21 14 -7 14 6 0 13 -4 16 -10z m-36 -37 c3 -2 -11 -1 -30 2
l-34 6 30 -15 c25 -13 26 -15 5 -9 -14 4 -41 6 -60 6 l-35 -1 45 17 c33 13 49
15 60 7 8 -6 17 -12 19 -13z m178 1 c-3 -3 -12 -4 -19 -1 -8 3 -5 6 6 6 11 1
17 -2 13 -5z m-47 -14 c-20 -13 -40 -13 -40 0 0 6 12 10 28 10 21 0 24 -2 12
-10z m-306 -33 c-2 -7 -26 -19 -52 -26 -35 -9 -43 -14 -32 -21 18 -11 9 -13
-17 -3 -14 5 -4 13 42 34 33 16 61 28 62 29 1 0 0 -6 -3 -13z m236 9 c0 -2
-13 -9 -30 -15 -35 -12 -41 -5 -7 9 25 10 37 12 37 6z m-85 -26 c3 -5 2 -10
-4 -10 -5 0 -13 5 -16 10 -3 6 -2 10 4 10 5 0 13 -4 16 -10z m-31 -8 c3 -5 -1
-9 -9 -9 -8 0 -12 4 -9 9 3 4 7 8 9 8 2 0 6 -4 9 -8z m-318 -77 c-15 -16 -66
-38 -72 -32 -4 4 66 45 79 46 5 1 2 -6 -7 -14z m1142 -241 l2 -251 98 -6 c178
-10 326 -51 520 -143 444 -210 759 -658 811 -1153 6 -51 12 -96 15 -98 2 -2
141 -4 309 -3 167 0 311 -2 321 -6 10 -4 16 -17 16 -35 l0 -29 -325 0 -324 0
-5 -32 c-3 -18 -8 -70 -11 -116 -22 -322 -183 -647 -438 -888 -107 -101 -208
-171 -355 -244 -176 -87 -413 -150 -568 -150 l-64 0 0 -266 0 -265 -27 3 -28
3 -5 260 -5 260 -90 7 c-344 27 -653 167 -911 410 -252 239 -403 564 -430 926
l-7 92 -329 0 -329 0 3 33 3 32 328 3 c303 2 327 4 327 20 1 56 33 248 55 323
31 107 90 247 141 331 148 245 374 458 613 578 169 84 417 150 568 150 l63 0
0 256 0 255 28 -3 27 -3 3 -251z m-1113 226 c-3 -5 -11 -10 -16 -10 -6 0 -7 5
-4 10 3 6 11 10 16 10 6 0 7 -4 4 -10z m-122 -35 c-3 -9 -8 -14 -10 -11 -3 3
-2 9 2 15 9 16 15 13 8 -4z m-55 -39 c-21 -12 -36 -26 -33 -29 3 -4 2 -5 -1
-3 -3 2 -5 8 -3 13 2 10 50 41 64 42 6 0 -7 -10 -27 -23z m162 10 c0 -2 -7 -7
-16 -10 -8 -3 -12 -2 -9 4 6 10 25 14 25 6z m-115 -46 c3 -5 13 -6 23 -3 18 7
17 5 -12 -17 -11 -8 -17 -10 -13 -3 4 7 0 16 -10 22 -10 6 -13 11 -6 11 6 0
14 -4 18 -10z m-120 -19 c-3 -6 -11 -11 -17 -11 -6 0 -6 6 2 15 14 17 26 13
15 -4z m-55 -24 c0 -2 -10 -12 -22 -23 l-23 -19 19 23 c18 21 26 27 26 19z
m150 -1 c0 -2 -7 -7 -16 -10 -8 -3 -12 -2 -9 4 6 10 25 14 25 6z m903 -23 c-7
-2 -21 -2 -30 0 -10 3 -4 5 12 5 17 0 24 -2 18 -5z m-978 -33 c-3 -5 -12 -10
-18 -10 -7 0 -6 4 3 10 19 12 23 12 15 0z m-105 -83 c0 -2 -10 -12 -22 -23
l-23 -19 19 23 c18 21 26 27 26 19z m685 -7 c-3 -5 -12 -10 -18 -10 -7 0 -6 4
3 10 19 12 23 12 15 0z m-985 -174 c0 -2 -8 -10 -17 -17 -16 -13 -17 -12 -4 4
13 16 21 21 21 13z m650 -129 c0 -2 -10 -12 -22 -23 l-23 -19 19 23 c18 21 26
27 26 19z"/>
<path d="M4975 7973 c-11 -2 -56 -11 -100 -19 -246 -47 -482 -172 -666 -353
-165 -164 -275 -337 -343 -541 -33 -98 -66 -260 -66 -322 l0 -28 80 0 80 0 0
44 c0 24 7 80 15 123 89 471 479 856 949 938 49 8 108 15 132 15 l44 0 0 75 0
75 -52 -1 c-29 -1 -62 -3 -73 -6z"/>
<path d="M5160 7908 l0 -75 83 -7 c270 -23 532 -149 728 -353 191 -198 292
-415 334 -715 l6 -48 47 -1 c26 0 59 -3 75 -5 26 -5 27 -4 27 45 0 174 -97
449 -226 641 -222 332 -607 560 -991 587 l-83 6 0 -75z"/>
<path d="M4946 7684 c-222 -44 -406 -143 -557 -301 -168 -176 -264 -374 -288
-596 -5 -40 -6 -76 -4 -80 3 -4 58 -5 124 -1 l118 7 12 -27 c20 -43 4 -48
-135 -47 l-126 2 0 -33 c0 -47 27 -203 46 -268 19 -65 91 -213 136 -277 44
-65 162 -187 231 -240 69 -53 202 -125 283 -154 78 -27 193 -49 258 -49 l53 0
6 182 c9 233 9 1408 0 1554 l-6 112 -31 -8 c-17 -5 -49 -11 -71 -14 l-40 -5
35 14 c19 7 48 14 63 14 37 1 44 23 46 139 l2 92 -43 -1 c-24 0 -74 -7 -112
-15z m106 -123 c-7 -4 -25 -6 -40 -4 -22 4 -24 2 -12 -7 12 -8 9 -9 -14 -4
-20 5 -27 4 -22 -4 5 -8 1 -10 -9 -6 -32 13 10 31 75 33 22 0 30 -2 22 -8z
m-122 -15 c0 -11 -19 -15 -25 -6 -3 5 1 10 9 10 9 0 16 -2 16 -4z m-85 -26
c-3 -5 -16 -10 -28 -10 -18 0 -19 2 -7 10 20 13 43 13 35 0z m-78 -26 c-16 -9
-31 -13 -34 -10 -3 3 5 10 18 15 37 15 47 12 16 -5z m-67 -29 c0 -2 -10 -9
-22 -15 -22 -11 -22 -10 -4 4 21 17 26 19 26 11z m-60 -29 c0 -2 -8 -10 -17
-17 -16 -13 -17 -12 -4 4 13 16 21 21 21 13z m220 -26 c-8 -5 -19 -10 -25 -10
-5 0 -3 5 5 10 8 5 20 10 25 10 6 0 3 -5 -5 -10z m-260 -9 c0 -5 -7 -12 -16
-15 -14 -5 -15 -4 -4 9 14 17 20 19 20 6z m195 -11 c-3 -5 -16 -15 -28 -21
-21 -10 -21 -9 2 10 25 23 36 27 26 11z m-243 -22 c-9 -9 -9 -15 1 -27 11 -14
10 -14 -6 -2 -13 10 -15 17 -6 27 6 8 14 14 17 14 3 0 1 -5 -6 -12z m188 -14
c0 -1 -22 -16 -50 -33 -27 -17 -50 -26 -50 -21 0 6 5 10 11 10 8 0 8 4 0 14
-8 10 -9 16 -1 21 6 4 9 1 8 -6 -2 -6 3 -14 11 -17 9 -3 11 0 6 8 -5 8 -4 11
2 7 6 -4 13 -1 16 6 4 10 47 20 47 11z m-233 -29 c0 -8 -4 -12 -9 -9 -5 3 -6
10 -3 15 9 13 12 11 12 -6z m-11 -27 c4 -7 3 -10 -1 -5 -5 4 -18 -1 -29 -10
-21 -18 -21 -18 -2 5 22 26 23 26 32 10z m459 5 c-16 -3 -38 -12 -49 -21 -46
-42 -45 -36 -46 -658 0 -323 -2 -590 -5 -592 -3 -3 -5 270 -5 607 l0 613 29
29 c23 23 38 29 68 28 34 -2 35 -2 8 -6z m-528 -66 c0 -8 -6 -14 -14 -14 -9 0
-10 4 -2 14 6 7 12 13 14 13 1 0 2 -6 2 -13z m266 -139 c15 -11 9 -12 -32 -10
-43 3 -54 0 -76 -22 l-25 -25 -2 -398 -1 -398 -10 379 c-10 415 -8 444 41 470
33 19 83 20 105 4z"/>
<path d="M5160 7636 l0 -63 78 -7 c42 -4 84 -11 92 -17 11 -7 8 -8 -12 -3 -15
3 -35 1 -45 -5 -10 -6 -12 -11 -5 -11 22 0 13 -38 -10 -43 -22 -4 -22 -4 2 -6
23 -2 24 -3 5 -11 -17 -7 -16 -9 11 -9 16 -1 39 -8 50 -17 19 -15 19 -15 -1
-10 -48 13 -158 26 -164 21 -18 -18 -22 -1190 -5 -1648 l7 -199 66 7 c98 9
243 50 338 95 47 22 89 37 94 34 5 -3 8 -1 7 4 -2 5 26 29 62 53 36 24 94 72
131 106 36 35 70 59 74 55 5 -4 5 -1 1 5 -4 7 10 34 34 64 114 144 200 383
200 555 l0 54 -129 0 c-119 0 -129 1 -134 20 -3 10 1 27 8 36 11 15 26 16 133
10 l122 -7 0 40 c0 81 -52 275 -97 366 -101 200 -281 383 -474 479 -130 65
-309 116 -411 116 -28 0 -28 -1 -28 -64z m250 -106 c8 -5 11 -10 5 -10 -5 0
-17 5 -25 10 -8 5 -10 10 -5 10 6 0 17 -5 25 -10z m37 -125 c0 -8 -4 -12 -9
-9 -5 3 -6 10 -3 15 9 13 12 11 12 -6z m-98 -104 c10 -6 1 -8 -25 -4 -33 4
-46 1 -70 -20 l-29 -25 -5 -629 -5 -628 -3 631 -2 631 25 27 c18 19 34 26 62
26 21 0 45 -4 52 -9z m317 -206 c18 -13 17 -14 -12 -6 -42 12 -78 3 -104 -24
-22 -23 -22 -28 -27 -497 -3 -260 -7 -475 -9 -477 -2 -2 -4 213 -4 478 l0 483
29 29 c33 33 93 40 127 14z"/>
<path d="M5168 7553 c7 -3 16 -2 19 1 4 3 -2 6 -13 5 -11 0 -14 -3 -6 -6z"/>
<path d="M3803 6553 c22 -363 214 -717 513 -946 196 -149 487 -258 719 -268
l60 -3 3 77 3 77 -55 0 c-119 0 -310 52 -450 122 -116 58 -183 107 -290 208
-204 195 -308 412 -346 723 l-12 97 -76 0 -75 0 6 -87z"/>
<path d="M6305 6573 c-8 -88 -30 -200 -55 -281 -28 -90 -110 -256 -159 -322
-65 -86 -212 -232 -228 -226 -8 3 -12 2 -9 -3 7 -11 -92 -80 -179 -123 -135
-68 -334 -128 -425 -128 -87 0 -90 -3 -90 -83 l0 -70 103 6 c290 18 579 152
808 374 53 51 99 90 104 85 5 -4 5 -2 1 5 -4 7 13 39 39 74 138 187 228 432
242 656 l6 103 -76 0 -75 0 -7 -67z"/>
</g>
</svg>
